<?xml version="1.0" standalone="no"?>
<!DOCTYPE svg PUBLIC "-//W3C//DTD SVG 20010904//EN"
 "http://www.w3.org/TR/2001/REC-SVG-20010904/DTD/svg10.dtd">
<svg version="1.0" xmlns="http://www.w3.org/2000/svg"
 width="512.000000pt" height="512.000000pt" viewBox="0 0 512.000000 512.000000"
 preserveAspectRatio="xMidYMid meet">

<g transform="translate(0.000000,512.000000) scale(0.100000,-0.100000)"
fill="#000000" stroke="none">
<path d="M2500 4724 c-30 -21 -600 -423 -1266 -895 -821 -582 -1214 -866
-1222 -884 -20 -43 -14 -73 20 -110 43 -44 2500 -1783 2532 -1791 31 -7 89 20
105 49 8 16 12 161 14 496 l2 475 60 -3 c290 -11 637 -123 923 -296 415 -251
772 -616 1139 -1168 79 -119 153 -222 163 -227 35 -19 78 -11 112 19 l33 29 3
124 c7 232 -29 586 -83 825 -180 798 -657 1426 -1445 1903 -217 132 -605 319
-830 402 -30 12 -61 25 -67 31 -10 7 -13 120 -13 503 l0 493 -23 26 c-14 17
-36 28 -62 32 -35 4 -48 0 -95 -33z"/>
</g>
</svg>
